<?xml version="1.0" standalone="no"?>
<!DOCTYPE svg PUBLIC "-//W3C//DTD SVG 20010904//EN"
 "http://www.w3.org/TR/2001/REC-SVG-20010904/DTD/svg10.dtd">
<svg version="1.0" xmlns="http://www.w3.org/2000/svg"
 width="374.000000pt" height="374.000000pt" viewBox="0 0 374.000000 374.000000"
 preserveAspectRatio="xMidYMid meet">
<metadata>
Created by potrace 1.11, written by Peter Selinger 2001-2013
</metadata>
<g transform="translate(0.000000,374.000000) scale(0.100000,-0.100000)"
fill="#000000" stroke="none">
<path d="M1050 3518 c-73 -11 -127 -39 -177 -90 -63 -67 -90 -125 -130 -281
-12 -47 -10 -335 2 -422 17 -114 23 -151 35 -194 5 -19 8 -35 7 -36 -1 -1 -56
-21 -122 -44 -230 -83 -395 -179 -516 -300 -113 -114 -156 -220 -136 -336 34
-196 281 -395 657 -531 58 -20 108 -40 112 -43 4 -3 3 -24 -2 -46 -49 -225
-59 -471 -25 -638 30 -147 115 -272 218 -318 80 -36 197 -35 307 0 105 34 184
71 275 129 76 48 213 153 273 208 20 19 40 34 44 34 5 0 51 -37 104 -81 170
-143 371 -258 514 -296 99 -26 214 -22 283 10 118 54 200 183 223 352 4 28 8
59 10 70 6 31 5 223 -1 285 -4 30 -13 96 -22 145 -29 168 -34 147 49 174 97
31 153 55 277 118 348 178 490 400 393 616 -46 100 -177 227 -315 306 -116 66
-320 154 -409 176 -27 7 -29 14 -12 85 12 49 15 72 31 205 4 33 7 116 7 185
-2 652 -437 752 -1044 241 l-95 -80 -35 33 c-102 95 -206 172 -331 244 -176
101 -319 139 -449 120z m185 -185 c122 -38 286 -137 431 -260 l82 -69 -75 -85
c-41 -46 -111 -131 -155 -187 -45 -57 -86 -105 -92 -108 -6 -2 -74 -13 -151
-24 -170 -24 -184 -27 -259 -46 -32 -8 -60 -13 -62 -11 -3 2 -11 37 -18 78 -8
41 -17 90 -21 109 -4 19 -8 100 -11 180 -9 370 91 499 331 423z m1452 18 c21
-2 74 -53 93 -90 49 -97 71 -318 49 -481 -5 -36 -11 -78 -14 -95 -6 -42 -25
-138 -28 -141 -1 -1 -40 6 -87 17 -47 10 -104 21 -128 24 -24 3 -64 10 -90 14
-26 5 -76 12 -112 16 -36 4 -65 8 -66 8 -4 7 -90 123 -94 127 -3 3 -37 43 -77
90 -40 47 -88 103 -108 125 l-36 40 24 20 c113 94 179 146 217 171 25 16 47
32 48 37 2 4 8 7 13 7 5 0 26 10 47 23 114 71 237 102 349 88z m-756 -536 c63
-70 139 -161 139 -167 0 -3 -92 -5 -204 -5 l-204 1 50 61 c109 131 151 174
162 167 7 -4 32 -29 57 -57z m203 -349 c49 -4 75 -11 87 -23 33 -34 195 -301
264 -437 l70 -136 -74 -145 c-63 -122 -235 -412 -260 -438 -4 -4 -18 -10 -32
-13 -37 -8 -473 -12 -572 -4 -76 5 -90 9 -105 30 -55 76 -190 302 -253 424
l-73 141 44 90 c62 128 258 462 295 503 2 2 61 6 132 9 70 3 129 6 130 7 4 4
278 -3 347 -8z m-852 -68 c-47 -76 -138 -235 -150 -262 -7 -16 -18 -36 -24
-43 -13 -16 -19 -4 -57 107 -12 36 -25 72 -28 80 -4 8 -12 33 -18 56 l-11 41
120 25 c67 13 136 25 155 26 l33 3 -20 -33z m1348 2 c58 -12 107 -24 110 -27
2 -2 -17 -69 -44 -149 -27 -80 -52 -142 -56 -137 -4 4 -24 40 -45 78 -21 39
-60 106 -87 149 -79 127 -77 119 -26 113 23 -3 90 -15 148 -27z m-1761 -194
c23 -68 61 -172 86 -231 l44 -108 -36 -86 c-20 -47 -58 -149 -84 -226 -56
-162 -40 -154 -187 -99 -106 39 -230 101 -318 160 -123 82 -208 197 -197 267
20 135 238 299 543 408 58 21 106 38 106 38 1 1 20 -55 43 -123z m2073 115
c13 -6 61 -24 108 -41 181 -68 335 -158 429 -252 129 -129 107 -245 -74 -383
-110 -84 -307 -180 -472 -229 -19 -6 -24 2 -59 106 -20 62 -58 166 -85 232
l-48 118 46 112 c25 61 61 158 80 216 19 58 36 111 38 118 5 14 8 15 37 3z
m-1793 -755 c24 -44 67 -118 96 -165 29 -47 51 -89 49 -92 -8 -13 -294 49
-294 64 0 24 94 286 101 279 3 -4 25 -43 48 -86z m1556 -74 c43 -123 43 -123
21 -131 -22 -9 -153 -37 -221 -47 -22 -3 -43 -8 -47 -10 -21 -13 -13 19 15 62
37 56 117 193 117 201 0 2 12 25 27 50 31 53 21 68 88 -125z m-1382 -363 c54
-7 104 -17 111 -23 8 -6 59 -67 115 -136 55 -69 123 -151 151 -182 l51 -56
-83 -69 c-230 -192 -430 -291 -564 -280 -38 3 -72 12 -88 23 -35 26 -81 117
-96 189 -20 93 -18 332 4 450 2 11 9 50 15 86 l13 65 136 -28 c75 -15 181 -33
235 -39z m1467 68 c0 -1 7 -34 15 -72 24 -115 30 -182 30 -345 0 -132 -3 -166
-22 -225 -24 -77 -60 -133 -99 -153 -91 -48 -272 4 -463 131 -97 66 -237 177
-245 195 -3 8 34 59 87 120 51 59 121 144 155 190 52 67 68 82 90 82 15 0 83
9 152 21 165 27 166 28 230 43 62 16 70 17 70 13z m-723 -117 c-37 -48 -159
-188 -178 -204 -22 -19 -22 -18 -66 30 -56 63 -153 180 -153 185 0 2 92 4 204
4 180 0 203 -2 193 -15z"/>
<path d="M1790 2205 c-173 -45 -278 -192 -264 -367 22 -261 323 -402 540 -252
145 99 190 288 106 449 -68 132 -239 208 -382 170z"/>
</g>
</svg>
